<?xml version="1.0" encoding="UTF-8"?>
<svg width="40px" height="40px" viewBox="0 0 40 40" version="1.1" xmlns="http://www.w3.org/2000/svg" xmlns:xlink="http://www.w3.org/1999/xlink">
    <title>编组 2Icon-App-40x40@2x</title>
    <defs>
        <polygon id="path-1" points="0 0 26.3157895 0 26.3157895 22.1052632 0 22.1052632"></polygon>
        <linearGradient x1="87.2126984%" y1="14.7196603%" x2="20.8688113%" y2="85.2803397%" id="linearGradient-3">
            <stop stop-color="#3AB2EF" offset="0%"></stop>
            <stop stop-color="#7F6AD1" offset="100%"></stop>
        </linearGradient>
        <polygon id="path-4" points="0 0 6.31578947 0 6.31578947 6.31578947 0 6.31578947"></polygon>
    </defs>
    <g id="设计规范" stroke="none" stroke-width="1" fill="none" fill-rule="evenodd">
        <g id="logo" transform="translate(-101, -19)">
            <g id="编组-2" transform="translate(101, 19)">
                <rect id="矩形" fill="#FFFFFF" x="0" y="0" width="40" height="40"></rect>
                <g id="Group" transform="translate(6.8421, 5.2632)">
                    <g id="编组" transform="translate(0, 6.3158)">
                        <mask id="mask-2" fill="white">
                            <use xlink:href="#path-1"></use>
                        </mask>
                        <g id="Clip-2"></g>
                        <path d="M26.3157895,11.0526848 C26.3157895,14.1046075 25.0879107,16.8683639 23.1054861,18.8667986 C21.1207392,20.8675744 18.379124,22.1053696 15.3516513,22.1053696 L8.76700367,22.1053696 C3.92515851,22.1053696 0,18.1482986 0,13.2673506 L0,13.0513323 C0.231177311,9.93577473 3.83268759,8.41194166 7.12300575,7.71259592 L7.12300575,11.946979 C7.12300575,13.5959537 8.45370036,14.9376078 10.0915758,14.9376078 L15.34764,14.9376078 C17.468771,14.9376078 19.1948949,13.1975437 19.1948949,11.0590696 C19.1948949,8.92059544 17.468771,7.1805313 15.34764,7.1805313 L11.8092549,7.1805313 L7.12300575,7.1805313 C5.68485064,7.1805313 2.38207635,7.55361501 0,9.50756913 L0,0 L15.3516513,0 C21.4065968,0 26.3157895,4.94883945 26.3157895,11.0526848" id="Fill-1" fill="url(#linearGradient-3)" mask="url(#mask-2)"></path>
                    </g>
                    <g id="编组" transform="translate(21.0526, 0)">
                        <mask id="mask-5" fill="white">
                            <use xlink:href="#path-4"></use>
                        </mask>
                        <g id="Clip-4"></g>
                        <path d="M0.00904780947,3.90847784 L0.00981617937,3.58199597 C0.00991772605,3.52996447 0.010004887,3.47930204 0.0100759696,3.43027566 L0.0102959874,3.15788585 C0.0102959874,1.41374865 1.42191137,-1.77809889e-05 3.16317587,-1.77809889e-05 C4.90426285,-1.77809889e-05 6.31587823,1.41374865 6.31587823,3.15788585 C6.31587823,4.90202305 4.90426285,6.31578947 3.16317587,6.31578947 C2.82344413,6.31578947 2.19126804,6.2964034 1.58085542,6.27429839 C1.60076561,5.40813885 2.28580786,4.73676199 3.15789474,4.73676199 C2.27188977,4.73676199 1.57894737,4.04394466 1.57894737,3.15789474 C1.57894737,4.04394466 0.886004967,4.73676199 0,4.73676199 C0.889187247,4.73994912 1.57894737,5.43177645 1.57894737,6.31578947 L1.57687262,6.27415411 L1.57894737,6.31578947 L1.57687262,6.27415411 C0.768759206,6.24486954 0,6.21088164 0,6.21088164 L0.000825913023,6.037378 C0.0026266742,5.65247108 0.00691532912,4.69863523 0.00904780947,3.90847784 Z" id="Combined-Shape" fill="#31B9F1" mask="url(#mask-5)"></path>
                    </g>
                </g>
            </g>
        </g>
    </g>
</svg>