<svg width="32" height="32" viewBox="0 0 32 32" fill="none" xmlns="http://www.w3.org/2000/svg">
<path fill-rule="evenodd" clip-rule="evenodd" d="M23.7686 5.15187L23.7694 4.80808C23.7695 4.75329 23.7696 4.69994 23.7696 4.64831L23.7699 4.36148C23.7699 2.52486 25.2563 1.03613 27.0899 1.03613C28.9233 1.03613 30.4098 2.52486 30.4098 4.36148C30.4098 6.1981 28.9233 7.68683 27.0899 7.68683C26.7322 7.68683 26.0665 7.66641 25.4237 7.64314C25.4447 6.73105 26.166 6.02407 27.0844 6.02407C26.1514 6.02407 25.4217 5.29452 25.4217 4.36149C25.4217 5.29452 24.692 6.02407 23.759 6.02407C24.6954 6.02743 25.4217 6.75594 25.4217 7.68683L25.4195 7.64298C24.5686 7.61215 23.759 7.57636 23.759 7.57636L23.7599 7.39365C23.7618 6.98834 23.7663 5.98393 23.7686 5.15187Z" fill="#31B9F1"/>
<path fill-rule="evenodd" clip-rule="evenodd" d="M29.3015 19.3258C29.3015 22.5395 28.0085 25.4498 25.921 27.5542C23.831 29.6611 20.944 30.9645 17.756 30.9645H10.8222C5.72362 30.9645 1.59033 26.7976 1.59033 21.6578V21.4304C1.83377 18.1496 5.62624 16.545 9.09103 15.8086V20.2675C9.09103 22.0039 10.4923 23.4167 12.217 23.4167H17.7518C19.9854 23.4167 21.803 21.5843 21.803 19.3325C21.803 17.0806 19.9854 15.2483 17.7518 15.2483H14.0258H9.09103C7.57661 15.2483 4.09871 15.6411 1.59033 17.6987V7.68701H17.756C24.132 7.68701 29.3015 12.8983 29.3015 19.3258Z" fill="url(#paint0_linear_429_2278)"/>
<defs>
<linearGradient id="paint0_linear_429_2278" x1="29.3015" y1="8.69998" x2="3.58303" y2="30.9645" gradientUnits="userSpaceOnUse">
<stop stop-color="#3AB2EF"/>
<stop offset="1" stop-color="#7F6AD1"/>
</linearGradient>
</defs>
</svg>
