<svg width="121" height="32" viewBox="0 0 121 32" fill="none" xmlns="http://www.w3.org/2000/svg">
<g clip-path="url(#clip0_1948_4873)">
<mask id="mask0_1948_4873" style="mask-type:luminance" maskUnits="userSpaceOnUse" x="0" y="7" width="30" height="25">
<path d="M0 7.10254H29.5981V31.965H0V7.10254Z" fill="white"/>
</mask>
<g mask="url(#mask0_1948_4873)">
<path fill-rule="evenodd" clip-rule="evenodd" d="M29.5981 19.5338C29.5981 22.9664 28.2171 26.0749 25.9874 28.3226C23.7551 30.5729 20.6715 31.9651 17.2664 31.9651H9.8605C4.41474 31.9651 0 27.5144 0 22.0247V21.7817C0.260012 18.2776 4.31073 16.5637 8.01145 15.7771V20.5396C8.01145 22.3943 9.50812 23.9033 11.3503 23.9033H17.2619C19.6476 23.9033 21.589 21.9462 21.589 19.541C21.589 17.1358 19.6476 15.1787 17.2619 15.1787H13.2822H8.01145C6.39391 15.1787 2.67919 15.5983 0 17.796V7.10254H17.2664C24.0766 7.10254 29.5981 12.6686 29.5981 19.5338Z" fill="url(#paint0_linear_1948_4873)"/>
</g>
<mask id="mask1_1948_4873" style="mask-type:luminance" maskUnits="userSpaceOnUse" x="23" y="0" width="8" height="8">
<path d="M23.6719 0H30.7754V7.10355H23.6719V0Z" fill="white"/>
</mask>
<g mask="url(#mask1_1948_4873)">
<path fill-rule="evenodd" clip-rule="evenodd" d="M23.6821 4.396L23.6829 4.02879C23.683 3.97027 23.6831 3.91329 23.6832 3.85815L23.6835 3.55178C23.6835 1.5901 25.2711 0 27.2296 0C29.1878 0 30.7755 1.5901 30.7755 3.55178C30.7755 5.51346 29.1878 7.10357 27.2296 7.10357C26.8475 7.10357 26.1365 7.08176 25.4499 7.0569C25.4723 6.08271 26.2428 5.32759 27.2236 5.32759C26.2271 5.32759 25.4478 4.54836 25.4478 3.55179C25.4478 4.54836 24.6684 5.32759 23.6719 5.32759C24.672 5.33117 25.4478 6.10929 25.4478 7.10357L25.4454 7.05674C24.5365 7.0238 23.6719 6.98557 23.6719 6.98557L23.6728 6.79043C23.6748 6.35751 23.6797 5.28471 23.6821 4.396Z" fill="#31B9F1"/>
</g>
<path d="M110.949 27.3707V12.647H115.924C117.079 12.647 118.024 12.8555 118.757 13.2724C119.495 13.6846 120.041 14.243 120.396 14.9476C120.751 15.6521 120.928 16.4381 120.928 17.3056C120.928 18.1732 120.751 18.9616 120.396 19.6709C120.046 20.3803 119.504 20.9458 118.771 21.3676C118.038 21.7846 117.098 21.9931 115.953 21.9931H112.387V20.4114H115.895C116.686 20.4114 117.321 20.2748 117.801 20.0016C118.28 19.7284 118.627 19.3594 118.843 18.8945C119.064 18.4248 119.174 17.8952 119.174 17.3056C119.174 16.7161 119.064 16.1889 118.843 15.724C118.627 15.2591 118.278 14.8948 117.793 14.6312C117.309 14.3628 116.667 14.2286 115.867 14.2286H112.732V27.3707H110.949Z" fill="black"/>
<path d="M92.9414 12.647H95.0694L100.073 24.8688H100.246L105.25 12.647H107.378V27.3707H105.71V16.1841H105.566L100.965 27.3707H99.3543L94.7531 16.1841H94.6093V27.3707H92.9414V12.647Z" fill="black"/>
<path d="M89.9436 20.008C89.9436 21.5609 89.6632 22.9029 89.1024 24.034C88.5417 25.1651 87.7724 26.0374 86.7947 26.6509C85.8169 27.2644 84.7002 27.5711 83.4445 27.5711C82.1887 27.5711 81.072 27.2644 80.0942 26.6509C79.1165 26.0374 78.3472 25.1651 77.7865 24.034C77.2257 22.9029 76.9453 21.5609 76.9453 20.008C76.9453 18.4551 77.2257 17.1131 77.7865 15.982C78.3472 14.8508 79.1165 13.9785 80.0942 13.3651C81.072 12.7516 82.1887 12.4448 83.4445 12.4448C84.7002 12.4448 85.8169 12.7516 86.7947 13.3651C87.7724 13.9785 88.5417 14.8508 89.1024 15.982C89.6632 17.1131 89.9436 18.4551 89.9436 20.008ZM88.2182 20.008C88.2182 18.7331 88.0049 17.6571 87.5783 16.78C87.1565 15.9029 86.5838 15.2391 85.8601 14.7885C85.1411 14.338 84.3359 14.1127 83.4445 14.1127C82.553 14.1127 81.7454 14.338 81.0217 14.7885C80.3027 15.2391 79.73 15.9029 79.3034 16.78C78.8816 17.6571 78.6707 18.7331 78.6707 20.008C78.6707 21.2829 78.8816 22.3589 79.3034 23.236C79.73 24.1131 80.3027 24.7769 81.0217 25.2274C81.7454 25.678 82.553 25.9032 83.4445 25.9032C84.3359 25.9032 85.1411 25.678 85.8601 25.2274C86.5838 24.7769 87.1565 24.1131 87.5783 23.236C88.0049 22.3589 88.2182 21.2829 88.2182 20.008Z" fill="black"/>
<path d="M59.6953 27.3702V16.3274H61.3345V18.0528H61.4783C61.7083 17.4633 62.0798 17.0056 62.5926 16.6797C63.1054 16.3489 63.7213 16.1836 64.4403 16.1836C65.1688 16.1836 65.7751 16.3489 66.2592 16.6797C66.748 17.0056 67.1291 17.4633 67.4023 18.0528H67.5173C67.8001 17.4825 68.2242 17.0295 68.7898 16.694C69.3554 16.3537 70.0335 16.1836 70.8244 16.1836C71.8117 16.1836 72.6193 16.4927 73.2472 17.111C73.875 17.7245 74.189 18.6807 74.189 19.9796V27.3702H72.4923V19.9796C72.4923 19.1648 72.2694 18.5824 71.8237 18.2325C71.3779 17.8827 70.8531 17.7077 70.2492 17.7077C69.4728 17.7077 68.8713 17.9426 68.4447 18.4123C68.0181 18.8772 67.8049 19.4667 67.8049 20.1809V27.3702H66.0794V19.807C66.0794 19.1791 65.8757 18.6735 65.4683 18.2901C65.0609 17.9018 64.5361 17.7077 63.8939 17.7077C63.4529 17.7077 63.0407 17.8252 62.6573 18.06C62.2787 18.2949 61.9719 18.6208 61.7371 19.0378C61.507 19.4499 61.392 19.9268 61.392 20.4684V27.3702H59.6953Z" fill="black"/>
<path d="M54.892 27.3704V16.3276H56.5886V27.3704H54.892ZM55.7547 14.4871C55.424 14.4871 55.1388 14.3745 54.8992 14.1492C54.6643 13.9239 54.5469 13.6531 54.5469 13.3368C54.5469 13.0205 54.6643 12.7497 54.8992 12.5244C55.1388 12.2992 55.424 12.1865 55.7547 12.1865C56.0854 12.1865 56.3682 12.2992 56.603 12.5244C56.8427 12.7497 56.9625 13.0205 56.9625 13.3368C56.9625 13.6531 56.8427 13.9239 56.603 14.1492C56.3682 14.3745 56.0854 14.4871 55.7547 14.4871Z" fill="black"/>
<path d="M41.9239 27.3707H40.0547L45.4611 12.647H47.3015L52.7079 27.3707H50.8387L46.4388 14.9763H46.3238L41.9239 27.3707ZM42.6141 21.6192H50.1485V23.2009H42.6141V21.6192Z" fill="black"/>
</g>
<defs>
<linearGradient id="paint0_linear_1948_4873" x1="2581.33" y1="373.071" x2="973.687" y2="2408.57" gradientUnits="userSpaceOnUse">
<stop stop-color="#3AB2EF"/>
<stop offset="1" stop-color="#7F6AD1"/>
</linearGradient>
<clipPath id="clip0_1948_4873">
<rect width="121" height="32" fill="white"/>
</clipPath>
</defs>
</svg>
