<svg width="135" height="32" viewBox="0 0 135 32" fill="none" xmlns="http://www.w3.org/2000/svg">
<path fill-rule="evenodd" clip-rule="evenodd" d="M14.3936 23.072L9.07007 20V19.991L0.0460956 14.7802C0.0153757 15.1834 1.57621e-05 15.5891 1.57621e-05 16C-0.00323129 18.3109 0.495238 20.595 1.46099 22.6945C2.42674 24.7939 3.83674 26.6587 5.5936 28.16L14.3936 23.072ZM6.96704 29.207C9.62558 31.0315 12.7756 32.0055 16 32C17.8101 32.0005 19.6072 31.6937 21.3145 31.0925V20.9242L15.9923 23.9962L6.96704 29.207ZM22.9184 30.4307C25.8305 29.0296 28.2527 26.7832 29.8687 23.9846L29.8406 24L22.9184 20.0026V30.4307ZM29.8687 8.01668C28.961 6.44216 27.7924 5.03331 26.4128 3.85029L17.6089 8.92676L22.9209 11.9987L29.8431 8.00132L29.8687 8.01668ZM25.038 2.79557L16.0089 8.00772L15.9974 7.99876L10.6816 11.0708V0.905016C13.0551 0.0718265 15.5914 -0.191186 18.0854 0.13724C20.5794 0.465666 22.9611 1.37632 25.038 2.79557ZM3.30559 6.26246C1.7734 8.2592 0.733052 10.5888 0.268815 13.0624L9.07647 18.1453V12.0013L9.08799 11.9949V1.56933C6.81873 2.65793 4.83778 4.26572 3.30559 6.26246ZM71.5454 25.4173C69.9698 25.4173 65.6997 25.4045 65.6997 25.4045V22.2303H71.5966C73.7991 22.2303 74.9003 21.5903 74.9003 20.3104V19.3773C74.8995 18.7638 74.7386 18.2945 74.4178 17.9694C74.1131 17.6442 73.5538 17.4817 72.7397 17.4817H70.8082C67.1824 17.4817 65.3695 15.8557 65.3695 12.6038V11.1358C65.3695 9.5145 65.9711 8.31989 67.1742 7.55193C68.3774 6.78397 70.2834 6.39998 72.892 6.39998H78.0517V9.59087H72.7653C71.4273 9.59087 70.5291 9.71503 70.0709 9.96333C69.8391 10.0801 69.6463 10.2617 69.5156 10.4859C69.385 10.7101 69.3222 10.9674 69.3349 11.2266V12.6346C69.3349 13.6099 70.0632 14.0975 71.5198 14.0975H73.4949C75.379 14.0992 76.7444 14.4918 77.5909 15.2751C78.4374 16.0584 78.8606 17.253 78.8606 18.8589V19.824C78.8615 22.0434 78.1583 23.5452 76.7512 24.3294C76.0529 24.7393 75.2869 25.0211 74.4894 25.1613C73.5195 25.3473 72.533 25.4331 71.5454 25.4173ZM43.2281 25.3597C43.601 25.3981 44.1096 25.4173 44.7538 25.4173C45.9903 25.4173 48.9215 25.4045 48.9215 25.4045V22.8062H44.9842C43.1069 22.8062 42.1682 22.0694 42.1682 20.5958V15.7602C42.164 14.4589 43.0173 13.8083 44.7282 13.8083H48.9215V11.2254H43.6607C43.2703 11.2407 42.8261 11.2932 42.3141 11.3687C41.8988 11.423 41.4901 11.5195 41.0943 11.6567C40.6979 11.8223 40.3224 12.0341 39.9756 12.2877C39.6514 12.5058 39.3763 12.7892 39.1679 13.1197C38.6559 13.9619 38.3999 15.0131 38.3999 16.2734V20.6252C38.3999 22.1936 38.7472 23.3024 39.4418 23.9518C39.7553 24.2878 40.1147 24.5778 40.5094 24.8132C40.9312 25.0249 41.387 25.1609 41.8559 25.2151C42.3986 25.2919 42.856 25.3401 43.2281 25.3597ZM55.0322 25.512C55.6571 25.5764 56.2851 25.6055 56.9132 25.5991C56.9134 25.5991 56.9136 25.5991 56.9138 25.5991H56.9125C56.9128 25.5991 56.913 25.5991 56.9132 25.5991C57.5243 25.6039 58.1351 25.5748 58.7429 25.512C59.3227 25.4507 59.8941 25.3258 60.4466 25.1396C60.9985 24.9766 61.5012 24.6788 61.9092 24.273C62.3173 23.8672 62.6179 23.3662 62.7839 22.8152C63.0522 22.0902 63.1825 21.3214 63.1679 20.5484V16.3528C63.1861 15.514 63.0561 14.6786 62.7839 13.8851C62.5694 13.3033 62.2314 12.7749 61.7931 12.3363C61.3717 11.9433 60.8679 11.6491 60.3186 11.4749C59.8182 11.2962 59.2975 11.1805 58.7685 11.1306C58.1525 11.0653 57.5332 11.0367 56.9138 11.0449C56.389 11.044 55.8045 11.0628 55.1602 11.1012C54.5675 11.1668 53.9862 11.3119 53.4322 11.5325C52.9181 11.7062 52.4431 11.9793 52.0344 12.3363C51.6291 12.7186 51.2984 13.2541 51.0424 13.9427C50.7737 14.7172 50.6437 15.5331 50.6584 16.3528V20.5484C50.6396 21.3308 50.7699 22.1097 51.0424 22.8434C51.2449 23.4115 51.5655 23.9302 51.9832 24.3652C52.4087 24.7387 52.912 25.0129 53.4565 25.1677C53.97 25.3307 54.4975 25.446 55.0322 25.512ZM58.4895 22.8152C58.1328 22.9295 57.6076 22.9867 56.9138 22.9867H56.9125C56.2179 22.9876 55.6948 22.9304 55.3432 22.8152C55.0235 22.7123 54.7511 22.4985 54.5752 22.2123C54.4396 21.9448 54.3717 21.5481 54.3717 21.0361V15.6936C54.3717 14.9282 54.5496 14.3923 54.9055 14.086C55.2613 13.7797 55.9308 13.6265 56.9138 13.6265C57.896 13.6291 58.565 13.7822 58.9208 14.086C59.2767 14.3898 59.4546 14.9257 59.4546 15.6936V21.0361C59.4546 21.5519 59.3791 21.9448 59.2267 22.2123C59.0671 22.5001 58.8032 22.7159 58.4895 22.8152ZM99.9025 25.4173C95.5505 25.4173 93.3745 23.9155 93.3745 20.9119L93.3732 16.0034C93.3741 14.2635 93.8652 13.0011 94.8465 12.216C95.8457 11.4319 97.3792 11.0398 99.4468 11.0398C101.395 11.0398 102.818 11.4237 103.717 12.1917C104.631 12.9383 105.088 14.2106 105.088 16.0085V19.4912H97.1031V20.5727C97.1065 21.3791 97.3625 21.9529 97.8711 22.2943C98.3797 22.6356 99.2949 22.8062 100.617 22.8062H104.731V25.4045C104.731 25.4045 101.614 25.4173 99.9025 25.4173ZM101.447 14.4201C101.358 14.2388 101.222 14.084 101.054 13.9708H101.048C100.726 13.7413 100.176 13.6265 99.3956 13.6265C98.4979 13.6274 97.8967 13.7421 97.5921 13.9708C97.4341 14.0915 97.3076 14.2485 97.2233 14.4286C97.1391 14.6087 97.0996 14.8064 97.1083 15.005V17.0132H101.566V15.005C101.578 14.803 101.537 14.6015 101.447 14.4201ZM115.524 11.2254H107.926L107.923 25.4045H111.635V13.8083H114.099C114.675 13.8083 115.099 13.8659 115.37 13.9811C115.501 14.0267 115.62 14.1023 115.717 14.2018C115.814 14.3013 115.887 14.4221 115.929 14.5545C116.031 14.8224 116.082 15.2243 116.082 15.7602V25.4045H119.794V15.2149C119.793 13.8369 119.471 12.8325 118.827 12.2019C118.201 11.5509 117.1 11.2254 115.524 11.2254ZM85.9416 25.3597C86.3145 25.3981 86.8226 25.4173 87.466 25.4173C88.7038 25.4173 91.6286 25.4045 91.6286 25.4045V22.8062H87.69C85.8127 22.8062 84.874 22.0694 84.874 20.5958V15.7602C84.8732 14.4589 85.7287 13.8083 87.4404 13.8083H91.6337V11.2254H86.3729C85.9838 11.2407 85.5384 11.2932 85.0264 11.3687C84.611 11.423 84.2023 11.5195 83.8065 11.6567C83.4104 11.8228 83.0349 12.0346 82.6878 12.2877C82.3642 12.5054 82.0892 12.7878 81.8801 13.1171C81.3681 13.9593 81.1121 15.0114 81.1121 16.2734V20.6252C81.113 22.1936 81.4603 23.3029 82.154 23.9531C82.468 24.2885 82.8274 24.5784 83.2216 24.8145C83.6438 25.0264 84.1 25.1624 84.5694 25.2164C85.1108 25.2932 85.5691 25.3405 85.9416 25.3597ZM134.4 15.988V19.4656L126.414 19.4682V20.5484C126.417 21.3556 126.673 21.9299 127.182 22.2712C127.69 22.6125 128.605 22.7832 129.926 22.7832H134.04V25.3789C134.04 25.3789 130.922 25.393 129.212 25.393C124.86 25.393 122.684 23.8908 122.684 20.8863V15.9842C122.684 14.2426 123.175 12.9801 124.157 12.1968C125.156 11.4118 126.69 11.0193 128.757 11.0193C130.706 11.0193 132.129 11.4033 133.028 12.1712C133.942 12.9179 134.4 14.1901 134.4 15.988ZM126.534 14.4094C126.45 14.5895 126.41 14.7872 126.419 14.9858V17.0836H130.871V14.9845C130.882 14.7828 130.841 14.5815 130.751 14.4004C130.662 14.2193 130.526 14.0647 130.359 13.9516C130.036 13.7221 129.485 13.6073 128.706 13.6073C127.809 13.6082 127.207 13.7229 126.903 13.9516C126.745 14.0723 126.618 14.2293 126.534 14.4094Z" fill="#2563EB"/>
</svg>
