<svg width="300" height="50" viewBox="0 0 300 50" fill="none" xmlns="http://www.w3.org/2000/svg">
<path d="M207.275 25.6201H203.813V37.5285H208.886V27.1595C208.872 26.7434 208.695 26.3495 208.394 26.0619C208.093 25.7742 207.691 25.6157 207.275 25.6201ZM197.544 20.2123H193.556L194.25 18.6171H187.215L186.521 20.2123H175.857V25.6361H184.296L177.62 41.8116H184.623L191.307 25.6361H196.483V36.4038H191.841L189.592 41.8276H197.496C198.755 41.8153 199.959 41.3126 200.853 40.4264C201.746 39.5401 202.259 38.3402 202.282 37.0818V24.9581C202.271 23.6958 201.762 22.4888 200.866 21.5999C199.97 20.711 198.759 20.2123 197.496 20.2123H197.544ZM176.344 27.7338L172.826 36.2283C172.748 36.4102 172.705 36.6049 172.699 36.8026C172.698 37.1539 172.836 37.4912 173.082 37.7418C173.329 37.9924 173.663 38.1363 174.015 38.1426H177.492L181.831 27.7737L176.344 27.7338ZM206.358 11.0638H202.465V8.48747H198.166C197.93 8.4832 197.695 8.52637 197.475 8.61445C197.255 8.70252 197.056 8.83371 196.888 9.00026C196.72 9.1668 196.587 9.36534 196.497 9.58413C196.407 9.80292 196.361 10.0375 196.364 10.2741V11.0717H183.929V8.48747H178.346V11.0638H173.703V16.4636H206.35L206.358 11.0638ZM76.427 8.48747H62.5565V41.7957H70.086V34.5534C70.086 34.1306 70.086 32.2004 72.6702 32.2004H75.7729C83.6852 32.2004 88.7899 27.2552 88.7899 20.2363C88.7899 13.2173 83.9245 8.48747 76.427 8.48747ZM75.9723 25.1336H70.086V15.666H75.8447C79.2186 15.666 81.1488 17.4207 81.1488 20.3559C81.1488 23.2911 79.0671 25.1256 75.9723 25.1256V25.1336ZM50.0979 10.8803V27.3908C50.0979 32.3041 47.8008 35.008 43.6293 35.008C39.4578 35.008 37.1527 32.2164 37.1527 27.1515V8.48747H29.6232V27.343C29.6232 36.8585 34.696 42.3141 43.5336 42.3141C52.4907 42.3141 57.6273 36.7707 57.6273 27.1117V8.48747H52.6821C52.3522 8.46099 52.0203 8.50325 51.7076 8.61159C51.3948 8.71992 51.1079 8.89198 50.865 9.11687C50.6221 9.34176 50.4285 9.6146 50.2965 9.91813C50.1644 10.2217 50.0968 10.5493 50.0979 10.8803ZM157.057 19.654C157.057 10.0269 148.89 8.48747 144.894 8.48747H130.218V41.7957H137.747V33.5723C137.764 33.2883 137.836 33.0103 137.96 32.7542C138.084 32.4981 138.257 32.269 138.47 32.0801C138.682 31.8911 138.93 31.746 139.199 31.6531C139.468 31.5601 139.752 31.5211 140.036 31.5384H142.708L149.249 41.7957H158.022L150.445 30.1506C154.736 28.3559 157.057 24.671 157.057 19.654ZM144.447 24.5194H137.747V15.666H144.312C147.622 15.666 149.44 17.2612 149.44 20.0767C149.44 22.8923 147.558 24.5194 144.447 24.5194ZM15.4018 21.4247C9.95417 19.9571 8.84549 19.2951 8.84549 17.2851C8.84549 15.7377 10.3131 14.7168 12.5863 14.7168C16.678 14.7168 20.8336 18.0987 20.8336 18.0987L24.7259 12.1325C21.4145 9.18171 17.1084 7.59437 12.674 7.68986C6.01398 7.68986 1.36391 11.9411 1.36391 18.0588C1.36391 24.99 5.98207 26.8325 12.012 28.4277C17.2683 29.8475 18.1137 30.7248 18.1137 32.328C18.1137 34.1785 16.5185 35.2313 13.8864 35.2313C11.1279 35.1247 8.46764 34.1785 6.26124 32.5195C5.79478 32.1443 5.20033 31.9661 4.60443 32.0227C4.00854 32.0793 3.45828 32.3663 3.0708 32.8226L0 36.6989C3.68618 40.2727 8.61661 42.2746 13.7508 42.2822C21.0569 42.2822 25.5953 38.2543 25.5953 31.6421C25.5953 25.5244 21.5355 23.0997 15.4018 21.4247ZM223.131 16.9182L220.659 10.9361H214.342L216.83 16.9182H223.131ZM215.442 19.7338L218.266 26.5294H224.591L221.736 19.7338H215.442ZM243.223 13.5124H231.73L233.764 8.48747H228.013L225.907 13.4805V41.7957H243.223C244.463 41.7731 245.647 41.2698 246.523 40.3919C247.399 39.514 247.901 38.3301 247.921 37.0898V18.2103C247.921 16.9644 247.426 15.7694 246.545 14.8884C245.664 14.0074 244.469 13.5124 243.223 13.5124ZM242.697 36.6431H231.706V32.2642C231.71 32.0157 231.767 31.7709 231.873 31.5459C231.979 31.3208 232.13 31.1206 232.318 30.958C232.507 30.7955 232.727 30.6744 232.965 30.6026C233.203 30.5309 233.453 30.51 233.7 30.5414H242.737L242.697 36.6431ZM242.697 25.0139H231.706V18.7926H242.697V25.0139ZM213.249 41.7638H219.574L224.535 29.7996H218.202L213.249 41.7638ZM267.55 20.0129V36.4038H264.575L262.326 41.8276H268.707C269.962 41.8171 271.163 41.3138 272.051 40.426C272.939 39.5383 273.442 38.3372 273.453 37.0818V18.2422H269.329C269.093 18.2411 268.859 18.2872 268.641 18.3777C268.424 18.4682 268.226 18.6013 268.06 18.7692C267.895 18.9372 267.764 19.1365 267.677 19.3556C267.589 19.5746 267.546 19.809 267.55 20.0448V20.0129ZM281.7 24.001H275.55L281.309 38.9721H287.435L281.7 24.001ZM258.346 24.001L252.595 39.0599H258.729L264.495 24.001H258.346ZM261.943 16.4237H278.653V21.2094H284.906V15.3629C284.885 14.1971 284.407 13.0863 283.574 12.2701C282.742 11.4538 281.622 10.9977 280.456 10.9999H264.224L265.285 8.48747H258.952L253.64 21.1455H259.949L261.943 16.4237ZM108.922 7.68986C105.503 7.68986 102.161 8.70356 99.319 10.6028C96.4766 12.502 94.2613 15.2014 92.9531 18.3597C91.6449 21.518 91.3026 24.9932 91.9695 28.3461C92.6364 31.6989 94.2826 34.7786 96.6998 37.1958C99.1171 39.6131 102.197 41.2593 105.55 41.9262C108.902 42.5931 112.378 42.2508 115.536 40.9426C118.694 39.6344 121.394 37.419 123.293 34.5767C125.192 31.7343 126.206 28.3926 126.206 24.9741C126.206 22.7043 125.759 20.4567 124.89 18.3597C124.022 16.2627 122.748 14.3573 121.143 12.7523C119.538 11.1473 117.633 9.87416 115.536 9.00554C113.439 8.13693 111.191 7.68986 108.922 7.68986ZM108.922 34.8565C106.967 34.8501 105.057 34.2645 103.435 33.1736C101.812 32.0826 100.55 30.5353 99.8061 28.7271C99.0627 26.9188 98.8718 24.9308 99.2577 23.0142C99.6436 21.0975 100.589 19.3382 101.974 17.9585C103.359 16.5789 105.122 15.6407 107.041 15.2625C108.959 14.8844 110.946 15.0832 112.751 15.834C114.556 16.5847 116.099 17.8536 117.183 19.4804C118.268 21.1073 118.845 23.019 118.844 24.9741C118.843 26.2749 118.585 27.5628 118.086 28.7639C117.586 29.965 116.855 31.0558 115.933 31.9738C115.011 32.8917 113.918 33.6189 112.714 34.1135C111.511 34.6082 110.222 34.8607 108.922 34.8565ZM108.922 20.2123C108.42 20.2113 107.922 20.3094 107.458 20.501C106.994 20.6926 106.573 20.974 106.218 21.329C105.863 21.684 105.581 22.1056 105.39 22.5696C105.198 23.0336 105.1 23.5309 105.101 24.0329V28.0927H112.742V24.0329C112.743 23.5309 112.645 23.0336 112.453 22.5696C112.262 22.1056 111.98 21.684 111.625 21.329C111.271 20.974 110.849 20.6926 110.385 20.501C109.921 20.3094 109.424 20.2113 108.922 20.2123Z" fill="#EA5504"/>
</svg>
