<svg width="32" height="32" viewBox="0 0 32 32" fill="none" xmlns="http://www.w3.org/2000/svg">
<path fill-rule="evenodd" clip-rule="evenodd" d="M14.3932 23.0726L9.07031 19.9995V19.9911L0.0457613 14.7807C0.0154368 15.1832 0 15.5898 0 16C0 20.8628 2.16935 25.2189 5.59306 28.1534L14.3932 23.0726ZM6.96642 29.2077C9.53715 30.9694 12.6482 32 16 32C17.8648 32 19.6551 31.681 21.3193 31.0945V20.9262L15.9974 23.9988L15.9929 23.9962L6.96642 29.2077ZM22.919 30.4307C25.8344 29.0303 28.2599 26.7725 29.8687 23.9841L29.8432 23.9988L22.9203 20.0018L22.919 20.0026V30.4307ZM29.8689 8.01628C28.9582 6.43775 27.7858 5.02924 26.411 3.85006L17.6089 8.93192L22.9203 11.9984L29.8432 8.00147L29.8689 8.01628ZM25.0382 2.79544L16.0092 8.00831L15.9974 8.00147L10.6811 11.0708V0.905353C12.3451 0.318981 14.1353 0 16 0C19.3538 0 22.4665 1.03187 25.0382 2.79544ZM9.08132 1.56912C4.55675 3.7423 1.21206 7.9807 0.269071 13.0625L9.07031 18.1439V12.0008L9.08132 11.9944V1.56912Z" fill="#2563EB"/>
</svg>
