<svg
  width="16"
  height="16"
  viewBox="0 0 16 16"
  fill="none"
  xmlns="http://www.w3.org/2000/svg"
>
  <g fill="#a7a6af" transform="translate(2.5944 1.7468)">
    <path d="M5.4056 8.55375C5.86956 8.55375 6.24567 8.17764 6.24567 7.71368C6.24567 7.24972 5.86956 6.87361 5.4056 6.87361C4.94165 6.87361 4.56554 7.24972 4.56554 7.71368C4.56554 8.17764 4.94165 8.55375 5.4056 8.55375Z" />
    <path
      clip-rule="evenodd"
      d="M10.8112 1.26741C10.8112 0.428535 10.0105 -0.178633 9.20276 0.0477381L5.42361 1.10683C5.41184 1.11013 5.39939 1.11013 5.38763 1.10683L1.60848 0.0477382C0.800717 -0.178633 0 0.428534 0 1.26741V8.28335C0 8.69243 0.197556 9.07631 0.530432 9.31408L4.66938 12.2705C5.1098 12.5851 5.70143 12.5851 6.14185 12.2705L10.2808 9.31408C10.6137 9.07631 10.8112 8.69242 10.8112 8.28335V1.26741ZM9.52658 1.20322C9.56909 1.19131 9.61123 1.22326 9.61123 1.26741V8.28335C9.61123 8.30488 9.60083 8.32509 9.58331 8.3376L5.44437 11.294C5.42119 11.3106 5.39005 11.3106 5.36687 11.294L1.22792 8.3376C1.2104 8.32509 1.2 8.30488 1.2 8.28335V1.26741C1.2 1.22326 1.24214 1.19131 1.28466 1.20322L5.06381 2.26231C5.28737 2.32497 5.52386 2.32497 5.74743 2.26231L9.52658 1.20322Z"
      fill-rule="evenodd"
    />
  </g>
</svg>
