<svg width="512" height="512" viewBox="0 0 512 512" fill="none" xmlns="http://www.w3.org/2000/svg">
<rect width="512" height="512" rx="114.33" fill="#2563EB"/>
<g filter="url(#filter0_f_916_2669)">
<path d="M363.441 135.675L264.369 190.742L264.234 190.657L205.915 223.094V115.707C231.958 106.899 259.787 104.117 287.153 107.586C314.519 111.055 340.654 120.678 363.441 135.675Z" fill="#0014E1" fill-opacity="0.4"/>
<path d="M281.939 200.497L378.481 146.814C393.547 159.256 406.324 174.057 416.274 190.593L340.209 232.892L281.939 200.497Z" fill="#0014E1" fill-opacity="0.4"/>
<path d="M340.189 317.462V427.61C372.134 412.808 398.703 389.073 416.426 359.506L416.148 359.664L340.189 317.462Z" fill="#0014E1" fill-opacity="0.4"/>
<path d="M188.25 317.414V317.324L89.2418 262.286C88.9116 266.537 88.7464 270.831 88.7464 275.166C88.7193 299.566 94.1911 323.68 104.784 345.845C115.377 368.011 130.839 387.699 150.102 403.549L246.644 349.9L188.25 317.414Z" fill="#0014E1" fill-opacity="0.4"/>
<path d="M188.369 232.849L188.25 232.92V297.813L91.7186 244.135C102.042 190.451 138.734 145.679 188.369 122.72V232.849Z" fill="#0014E1" fill-opacity="0.4"/>
<path d="M165.171 414.688L264.191 359.636L264.24 359.664L322.623 327.203V434.622C296.593 443.423 268.779 446.205 241.427 442.742C214.076 439.279 187.954 429.669 165.171 414.688Z" fill="#0014E1" fill-opacity="0.4"/>
</g>
<path d="M357.149 111.926L260.346 167.865L260.215 167.778L203.232 200.729V91.6415C228.677 82.6938 255.869 79.8676 282.609 83.3915C309.348 86.9153 334.884 96.6903 357.149 111.926Z" fill="white"/>
<path d="M277.514 177.775L371.845 123.241C386.566 135.88 399.051 150.916 408.772 167.714L334.449 210.682L277.514 177.775Z" fill="white"/>
<path d="M334.43 296.592V408.485C365.643 393.448 391.603 369.338 408.921 339.303L408.649 339.463L334.43 296.592Z" fill="white"/>
<path d="M185.971 296.544V296.452L89.2305 240.542C88.9078 244.861 88.7464 249.222 88.7464 253.626C88.7199 278.412 94.0664 302.909 104.417 325.425C114.767 347.942 129.875 367.942 148.697 384.043L243.027 329.544L185.971 296.544Z" fill="white"/>
<path d="M186.088 210.639L185.971 210.711V276.632L91.6505 222.103C101.738 167.57 137.589 122.087 186.088 98.7649V210.639Z" fill="white"/>
<path d="M163.421 395.359L260.172 339.434L260.22 339.463L317.266 306.487V415.608C291.833 424.549 264.656 427.375 237.93 423.857C211.205 420.339 185.682 410.577 163.421 395.359Z" fill="white"/>
<defs>
<filter id="filter0_f_916_2669" x="60.4027" y="77.7938" width="384.367" height="394.737" filterUnits="userSpaceOnUse" color-interpolation-filters="sRGB">
<feFlood flood-opacity="0" result="BackgroundImageFix"/>
<feBlend mode="normal" in="SourceGraphic" in2="BackgroundImageFix" result="shape"/>
<feGaussianBlur stdDeviation="14.1718" result="effect1_foregroundBlur_916_2669"/>
</filter>
</defs>
</svg>
