<svg width="512" height="512" viewBox="0 0 512 512" fill="none" xmlns="http://www.w3.org/2000/svg">
<rect width="512" height="512" rx="120" fill="#2563EB"/>
<path d="M366.7 110.979L267.626 168.231L267.491 168.142L209.171 201.866V90.219C235.214 81.0614 263.044 78.1689 290.41 81.7754C317.777 85.3819 343.912 95.3863 366.7 110.979Z" fill="white"/>
<path d="M285.197 178.373L381.74 122.56C396.806 135.495 409.584 150.884 419.534 168.076L343.467 212.052L285.197 178.373Z" fill="white"/>
<path d="M343.447 299.978V414.496C375.393 399.106 401.962 374.43 419.686 343.69L419.408 343.855L343.447 299.978Z" fill="white"/>
<path d="M191.506 299.928V299.834L92.4955 242.613C92.1653 247.033 92.0001 251.496 92.0001 256.004C91.973 281.372 97.4449 306.443 108.038 329.487C118.631 352.533 134.093 373.001 153.357 389.48L249.9 333.703L191.506 299.928Z" fill="white"/>
<path d="M191.625 212.008L191.506 212.082V279.55L94.9723 223.741C105.296 167.928 141.988 121.379 191.625 97.5095V212.008Z" fill="white"/>
<path d="M168.426 401.062L267.447 343.825L267.497 343.855L325.881 310.105V421.786C299.851 430.937 272.036 433.828 244.684 430.228C217.332 426.628 191.209 416.637 168.426 401.062Z" fill="white"/>
</svg>
